# xmcd CD database file generated by Grip 2.91
# 
# Track frame offsets:
#       150
#       21606
#       52013
#       76050
#       93368
#       94527
#       111092
#       127981
#       145252
#       169439
#       185483
#       202684
#       220767
#       238192
#       264234
#       279842
#       298394
#       319931
# 
# Disc length: 4290 seconds
# 
# Revision: 3
# Processed by: cddbd v1.4b41PL1 Copyright (c) Steve Scherf et al.
# Submitted via: Grip 2.91
# 
DISCID=0610c012
DTITLE=Big Red - Big Redemption
DYEAR=1900
DGENRE=
TTITLE0=Red-emption
TTITLE1=Spliff
TTITLE2=Deenastyle
TTITLE3=Freeze
TTITLE4=******
TTITLE5=Bimbo
TTITLE6=Je prends le mic
TTITLE7=Respect or die
TTITLE8=El dia de los muertes
TTITLE9=Vietnam
TTITLE10=Y croire
TTITLE11=Aux armes etc...
TTITLE12=Mémoire
TTITLE13=Riz-la
TTITLE14=Cynique
TTITLE15=Délinquance juvénile
TTITLE16=Sur la parole
TTITLE17=Respect or die II
EXTD=
EXTT0=
EXTT1=
EXTT2=
EXTT3=
EXTT4=
EXTT5=
EXTT6=
EXTT7=
EXTT8=
EXTT9=
EXTT10=
EXTT11=
EXTT12=
EXTT13=
EXTT14=
EXTT15=
EXTT16=
EXTT17=
PLAYORDER=
